<svg xmlns="http://www.w3.org/2000/svg" width="25" height="17" viewBox="0 0 25 17" fill="none">
            <path fill-rule="evenodd" clip-rule="evenodd" d="M5.10068 1.28573C3.36614 1.28573 1.8807 2.8324 1.8807 4.85015V12.1497C1.8807 14.1599 3.35919 15.7142 5.10068 15.7142H20.561C22.3048 15.7142 23.7885 14.1669 23.781 12.1517L23.781 12.1497V4.85015C23.781 2.83999 22.3025 1.28573 20.561 1.28573H5.10068ZM0.850098 4.85015C0.850098 2.34911 2.7147 0.255127 5.10068 0.255127H20.561C22.9568 0.255127 24.8116 2.35982 24.8116 4.85015V12.1489C24.8203 14.652 22.9541 16.7448 20.561 16.7448H5.10068C2.70489 16.7448 0.850098 14.6401 0.850098 12.1497V4.85015Z" fill="white"></path>
            <path fill-rule="evenodd" clip-rule="evenodd" d="M9.86792 3.74341L17.9185 8.38582L9.86792 13.0282V3.74341ZM10.8985 5.52739V11.2442L15.8554 8.38582L10.8985 5.52739Z" fill="white"></path>
          </svg>